<mxfile host="app.diagrams.net" modified="2023-08-22T03:17:20.733Z" agent="Mozilla/5.0 (X11; Ubuntu; Linux x86_64; rv:109.0) Gecko/20100101 Firefox/115.0" version="21.6.8" etag="2hHrfVRH8VgZVgl1GwOD" type="github">
  <diagram name="Halaman-1" id="xpxoDpu_0cLPeF9SU5vo">
    <mxGraphModel>
      <root>
        <mxCell id="0" />
        <mxCell id="1" parent="0" />
      </root>
    </mxGraphModel>
  </diagram>
</mxfile>
